<?xml version="1.0" encoding="UTF-8" standalone="no"?>
<!DOCTYPE svg PUBLIC "-//W3C//DTD SVG 1.1//EN"
 "http://www.w3.org/Graphics/SVG/1.1/DTD/svg11.dtd">
<!-- Generated by graphviz version 2.43.0 (0)
 -->
<!-- Title: flowchart Pages: 1 -->
<svg width="618pt" height="304pt"
 viewBox="0.00 0.00 617.53 303.80" xmlns="http://www.w3.org/2000/svg" xmlns:xlink="http://www.w3.org/1999/xlink">
<g id="graph0" class="graph" transform="scale(1 1) rotate(0) translate(4 299.8)">
<title>flowchart</title>
<polygon fill="white" stroke="transparent" points="-4,4 -4,-299.8 613.53,-299.8 613.53,4 -4,4"/>
<!-- p0 -->
<g id="node1" class="node">
<title>p0</title>
<ellipse fill="black" stroke="black" cx="226.24" cy="-277.2" rx="3.6" ry="3.6"/>
<text text-anchor="middle" x="157.64" y="-284.6" font-family="Times,serif" font-size="14.00">Channel.fromPath</text>
</g>
<!-- p2 -->
<g id="node2" class="node">
<title>p2</title>
<ellipse fill="none" stroke="black" cx="226.24" cy="-204.6" rx="115.88" ry="18"/>
<text text-anchor="middle" x="226.24" y="-200.9" font-family="Times,serif" font-size="14.00">mmseqs2:CREATE_DB</text>
</g>
<!-- p0&#45;&gt;p2 -->
<g id="edge1" class="edge">
<title>p0&#45;&gt;p2</title>
<path fill="none" stroke="black" d="M226.24,-273.52C226.24,-266.85 226.24,-248.9 226.24,-233.13"/>
<polygon fill="black" stroke="black" points="229.74,-232.73 226.24,-222.73 222.74,-232.73 229.74,-232.73"/>
<text text-anchor="middle" x="257.74" y="-244.4" font-family="Times,serif" font-size="14.00">fastaFile</text>
</g>
<!-- p3 -->
<g id="node5" class="node">
<title>p3</title>
<ellipse fill="none" stroke="black" cx="107.24" cy="-131.6" rx="107.48" ry="18"/>
<text text-anchor="middle" x="107.24" y="-127.9" font-family="Times,serif" font-size="14.00">mmseqs2:LINCLUST</text>
</g>
<!-- p2&#45;&gt;p3 -->
<g id="edge3" class="edge">
<title>p2&#45;&gt;p3</title>
<path fill="none" stroke="black" d="M198.34,-186.95C182.08,-177.25 161.38,-164.9 143.82,-154.43"/>
<polygon fill="black" stroke="black" points="145.35,-151.26 134.97,-149.14 141.76,-157.27 145.35,-151.26"/>
</g>
<!-- p4 -->
<g id="node6" class="node">
<title>p4</title>
<ellipse fill="none" stroke="black" cx="208.24" cy="-58.6" rx="120.48" ry="18"/>
<text text-anchor="middle" x="208.24" y="-54.9" font-family="Times,serif" font-size="14.00">mmseqs2:CREATE_TSV</text>
</g>
<!-- p2&#45;&gt;p4 -->
<g id="edge5" class="edge">
<title>p2&#45;&gt;p4</title>
<path fill="none" stroke="black" d="M226.87,-186.57C227.26,-168.39 227.1,-138.79 223.24,-113.6 221.88,-104.71 219.54,-95.2 217.12,-86.68"/>
<polygon fill="black" stroke="black" points="220.4,-85.45 214.17,-76.88 213.7,-87.47 220.4,-85.45"/>
<text text-anchor="middle" x="268.24" y="-127.9" font-family="Times,serif" font-size="14.00">mmseqsDB</text>
</g>
<!-- p1 -->
<g id="node3" class="node">
<title>p1</title>
<ellipse fill="black" stroke="black" cx="491.24" cy="-277.2" rx="3.6" ry="3.6"/>
<text text-anchor="middle" x="422.64" y="-284.6" font-family="Times,serif" font-size="14.00">Channel.fromPath</text>
</g>
<!-- p6 -->
<g id="node4" class="node">
<title>p6</title>
<ellipse fill="none" stroke="black" cx="491.24" cy="-204.6" rx="94.78" ry="18"/>
<text text-anchor="middle" x="491.24" y="-200.9" font-family="Times,serif" font-size="14.00">msa_hmm:MAFFT</text>
</g>
<!-- p1&#45;&gt;p6 -->
<g id="edge2" class="edge">
<title>p1&#45;&gt;p6</title>
<path fill="none" stroke="black" d="M491.24,-273.52C491.24,-266.85 491.24,-248.9 491.24,-233.13"/>
<polygon fill="black" stroke="black" points="494.74,-232.73 491.24,-222.73 487.74,-232.73 494.74,-232.73"/>
<text text-anchor="middle" x="527.24" y="-244.4" font-family="Times,serif" font-size="14.00">familyFile</text>
</g>
<!-- p7 -->
<g id="node8" class="node">
<title>p7</title>
<ellipse fill="none" stroke="black" cx="491.24" cy="-131.6" rx="118.08" ry="18"/>
<text text-anchor="middle" x="491.24" y="-127.9" font-family="Times,serif" font-size="14.00">msa_hmm:HMMBUILD</text>
</g>
<!-- p6&#45;&gt;p7 -->
<g id="edge7" class="edge">
<title>p6&#45;&gt;p7</title>
<path fill="none" stroke="black" d="M491.24,-186.41C491.24,-178.39 491.24,-168.65 491.24,-159.67"/>
<polygon fill="black" stroke="black" points="494.74,-159.63 491.24,-149.63 487.74,-159.63 494.74,-159.63"/>
</g>
<!-- p3&#45;&gt;p4 -->
<g id="edge4" class="edge">
<title>p3&#45;&gt;p4</title>
<path fill="none" stroke="black" d="M130.92,-113.95C144.37,-104.5 161.4,-92.53 176.05,-82.23"/>
<polygon fill="black" stroke="black" points="178.19,-85 184.36,-76.39 174.17,-79.28 178.19,-85"/>
</g>
<!-- p5 -->
<g id="node7" class="node">
<title>p5</title>
<ellipse fill="black" stroke="black" cx="208.24" cy="-1.8" rx="1.8" ry="1.8"/>
</g>
<!-- p4&#45;&gt;p5 -->
<g id="edge6" class="edge">
<title>p4&#45;&gt;p5</title>
<path fill="none" stroke="black" d="M208.24,-40.56C208.24,-31.87 208.24,-21.56 208.24,-13.9"/>
<polygon fill="black" stroke="black" points="211.74,-13.76 208.24,-3.76 204.74,-13.76 211.74,-13.76"/>
</g>
<!-- p8 -->
<g id="node9" class="node">
<title>p8</title>
<ellipse fill="black" stroke="black" cx="491.24" cy="-58.6" rx="1.8" ry="1.8"/>
</g>
<!-- p7&#45;&gt;p8 -->
<g id="edge8" class="edge">
<title>p7&#45;&gt;p8</title>
<path fill="none" stroke="black" d="M491.24,-113.41C491.24,-100.17 491.24,-82.25 491.24,-70.81"/>
<polygon fill="black" stroke="black" points="494.74,-70.43 491.24,-60.43 487.74,-70.43 494.74,-70.43"/>
</g>
</g>
</svg>
